# xmcd
#
# Track frame offsets:
#	150
#	9933
#	21537
#	28272
#	41003
#	47002
#	51945
#	58831
#	67423
#	73567
#	83813
#	88469
#	95817
#	105038
#	113000
#	119486
#	125139
#	131398
#	142290
#	147657
#	156933
#	162516
#	170183
#	177699
#	184608
#	196217
#	204291
#	211026
#	220271
#	225027
#
# Disc length: 3082 seconds
# Revision: 0
# Processed by: cddbd v1.5.2PL0 Copyright (c) Steve Scherf et al.
# Submitted via: dBpowerAMP V12.0
#
DISCID=cb0c081e
DTITLE=Various Artist - Appalachian Banjo Breakdown
DYEAR=2009
DGENRE=Country
TTITLE0=Doc Martin and The Dixie Travelers - Charlotte Breakdown
TTITLE1=Raymond Fairchild and The Maggie Valley Boys - Earl's Breakdown
TTITLE2=Earl Taylor and Jim McCall With The Stoney Mountain Boys - John Hardy
TTITLE3=Bobby Atkins With Vassar Clements and Clay Jones - Pike County Breakdown
TTITLE4=Don Reno and Bill Harrell With The Tennessee Cut-Ups - Limehouse Blues
TTITLE5=Hylo Brown - Maggie
TTITLE6=Raymond Fairchild - Foggy Mountain Top
TTITLE7=Mac Martin and The Dixie Travelers - I Don't Love Nobody
TTITLE8=Red Smiley: The Bluegrass Cut Ups - Dear Old Dixie
TTITLE9=The Cumberlands With Jim Smoak - Run Boy Run
TTITLE10=Raymond Fairchild and The Frosty Mountain Boys - Casey Jones
TTITLE11=Don Reno and Bill Harrell With The Tennessee Cut-Ups - Dill Pickle Rag
TTITLE12=Bobby Atkins With Vassar Clements and Frank Poindexter - Flop Eared Mule
TTITLE13=Hylo Brown and The Timberliners - Banjo On The Mountain
TTITLE14=Raymond Fairchild - Cripple Creek
TTITLE15=Mac Martin and The Dixie Travelers - Sugar In The Gourd
TTITLE16=Jim Greer and The Mac O Chee Valley Folks - Grandfather's Clock
TTITLE17=Don Reno and Bill Harrell With The Tennessee Cut-Ups - Under The Double Eagle
TTITLE18=Raymond Fairchild - Cumberland Gap
TTITLE19=Mac Martin and The Dixie Travelers - Dixie Breakdown
TTITLE20=Lee Moore - The Old Spinning Wheel
TTITLE21=Log Cabin Boys - Pretty Polly
TTITLE22=Raymond Fairchild and The Maggie Valley Boys - Kicking Mule
TTITLE23=Mac Martin and The Dixie Travelers - Going Down The Country
TTITLE24=The Cumberlands With Jim Smoak - Soldier's Joy
TTITLE25=Red Smiley: The Bluegrass Cut Ups - Silver Bells
TTITLE26=Raymond Fairchild and The Maggie Valley Boys - John Henry
TTITLE27=Mac Martin and The Dixie Travelers - Backtrackin'
TTITLE28=Hylo Brown - Home Sweet Home
TTITLE29=Mac Martin and The Dixie Travelers - Fireball Mail
EXTD=
EXTT0=
EXTT1=
EXTT2=
EXTT3=
EXTT4=
EXTT5=
EXTT6=
EXTT7=
EXTT8=
EXTT9=
EXTT10=
EXTT11=
EXTT12=
EXTT13=
EXTT14=
EXTT15=
EXTT16=
EXTT17=
EXTT18=
EXTT19=
EXTT20=
EXTT21=
EXTT22=
EXTT23=
EXTT24=
EXTT25=
EXTT26=
EXTT27=
EXTT28=
EXTT29=
PLAYORDER=
